<?xml version="1.0" standalone="no"?>
<!DOCTYPE svg PUBLIC "-//W3C//DTD SVG 20010904//EN"
 "http://www.w3.org/TR/2001/REC-SVG-20010904/DTD/svg10.dtd">
<svg version="1.0" xmlns="http://www.w3.org/2000/svg"
 width="1120.000000pt" height="1120.000000pt" viewBox="0 0 1120.000000 1120.000000"
 preserveAspectRatio="xMidYMid meet">
<metadata>
Created by potrace 1.14, written by Peter Selinger 2001-2017
</metadata>
<g transform="translate(0.000000,1120.000000) scale(0.100000,-0.100000)"
fill="#000000" stroke="none">
<path d="M11024 10155 c0 -60 1 -84 3 -52 2 32 2 81 0 110 -2 29 -3 3 -3 -58z"/>
<path d="M3113 10154 c-10 -4 -13 -66 -13 -260 l0 -255 43 1 c23 1 67 -2 97
-5 74 -9 134 22 168 86 20 38 23 54 19 112 -5 76 -21 107 -78 145 -29 20 -44
23 -101 20 l-67 -3 -3 80 c-3 77 -4 80 -28 82 -14 1 -31 -1 -37 -3z m199 -241
c44 -39 47 -136 7 -187 -16 -21 -29 -26 -63 -26 -71 0 -77 11 -74 120 3 89 4
95 28 107 30 16 76 9 102 -14z"/>
<path d="M3737 10154 c-4 -4 -7 -40 -7 -81 l0 -73 -60 0 c-69 0 -106 -16 -144
-60 -55 -66 -58 -177 -6 -249 35 -47 84 -67 144 -56 22 4 62 7 88 6 l46 -2 7
73 c3 40 5 156 3 258 l-3 185 -30 3 c-17 2 -34 0 -38 -4z m-26 -224 c17 -9 19
-22 19 -102 0 -108 -11 -128 -72 -128 -59 0 -88 36 -88 109 1 31 7 67 14 80
24 44 84 63 127 41z"/>
<path d="M4660 9917 c0 -228 1 -245 19 -261 11 -10 35 -19 53 -19 29 -2 33 1
36 25 2 19 -3 30 -17 38 -20 10 -21 21 -23 233 l-3 222 -32 3 -33 3 0 -244z"/>
<path d="M7220 9924 l0 -236 30 -29 c22 -22 37 -29 57 -27 39 4 43 41 9 73
l-26 24 0 216 0 215 -35 0 -35 0 0 -236z"/>
<path d="M7394 10147 c-3 -9 -4 -114 -2 -236 l3 -221 26 -26 c35 -34 93 -39
97 -7 2 13 -7 30 -22 45 l-26 23 -2 215 -3 215 -33 3 c-21 2 -34 -2 -38 -11z"/>
<path d="M8540 10079 l0 -82 -34 6 c-50 8 -117 -10 -150 -41 -40 -38 -56 -81
-56 -154 0 -116 65 -185 165 -173 28 3 74 5 103 5 l52 -1 -2 258 -3 258 -37 3
-38 3 0 -82z m-22 -145 c21 -6 22 -11 22 -110 0 -115 -5 -124 -73 -124 -92 0
-120 157 -39 220 25 21 50 24 90 14z"/>
<path d="M1993 10134 c-84 -42 -93 -157 -17 -223 19 -17 57 -42 84 -56 77 -39
97 -81 62 -126 -24 -28 -91 -31 -141 -4 -33 17 -35 17 -48 -1 -7 -10 -13 -28
-13 -40 0 -51 167 -70 241 -27 35 20 69 79 69 118 0 57 -37 99 -138 159 -84
50 -104 93 -63 130 20 18 86 19 137 2 16 -6 23 -2 32 19 7 14 12 30 12 34 0
31 -163 41 -217 15z"/>
<path d="M2938 10139 c-28 -16 -23 -67 6 -81 32 -14 53 -5 68 28 11 23 10 28
-11 45 -26 21 -38 23 -63 8z"/>
<path d="M4117 10144 c-4 -4 -7 -119 -7 -256 l0 -248 40 0 39 0 3 118 3 117
87 3 c83 3 86 4 93 29 3 14 2 30 -2 34 -4 4 -46 9 -93 11 l-85 3 0 60 0 60
123 3 123 3 -3 32 -3 32 -156 3 c-85 1 -158 -1 -162 -4z"/>
<path d="M4506 10137 c-12 -9 -17 -23 -14 -42 3 -28 6 -30 43 -30 37 0 40 2
43 30 4 29 -17 55 -43 55 -6 0 -19 -6 -29 -13z"/>
<path d="M5478 10144 c-5 -4 -8 -119 -8 -257 l0 -249 108 4 c135 4 191 28 236
101 54 88 44 262 -19 330 -48 51 -101 70 -210 75 -55 2 -103 1 -107 -4z m214
-92 c14 -8 36 -33 48 -54 19 -33 22 -51 18 -113 -5 -108 -48 -159 -145 -171
l-53 -7 0 180 c0 99 3 183 7 187 10 10 94 -4 125 -22z"/>
<path d="M11021 10024 c0 -11 3 -14 6 -6 3 7 2 16 -1 19 -3 4 -6 -2 -5 -13z"/>
<path d="M6473 9914 c-22 -55 -44 -98 -48 -97 -4 1 -22 41 -40 88 -18 47 -35
88 -38 91 -3 3 -21 2 -40 -1 l-36 -7 28 -76 c16 -43 45 -123 66 -179 21 -59
43 -103 50 -103 7 0 33 47 57 105 23 58 46 105 49 105 3 0 27 -45 54 -100 32
-68 53 -100 63 -98 8 2 31 51 57 123 23 66 52 142 64 169 12 27 20 50 19 51
-2 2 -21 5 -42 7 l-39 3 -36 -97 c-19 -54 -38 -94 -42 -90 -4 4 -21 42 -39 85
-18 42 -40 87 -49 98 -17 21 -18 20 -58 -77z"/>
<path d="M2364 9981 c-65 -40 -101 -113 -90 -188 17 -125 114 -187 237 -153
50 14 62 30 49 64 -9 26 -11 26 -32 12 -12 -9 -42 -16 -66 -16 -35 0 -49 6
-73 29 -25 25 -29 37 -29 84 0 45 5 61 26 86 30 36 83 49 128 32 26 -9 33 -9
44 6 19 27 14 40 -19 52 -51 18 -140 14 -175 -8z"/>
<path d="M2660 9991 c-28 -8 -26 6 -22 -258 l2 -93 34 0 34 0 4 124 c4 147 13
166 83 166 35 0 44 4 53 25 7 14 12 30 12 35 0 16 -104 12 -126 -5 -25 -19
-34 -19 -34 0 0 16 -2 17 -40 6z"/>
<path d="M2910 9980 c-9 -16 -8 -20 4 -20 13 0 16 -25 18 -157 l3 -158 38 -3
37 -3 0 180 0 181 -45 0 c-34 0 -47 -5 -55 -20z"/>
<path d="M4467 9993 c-14 -13 -6 -41 13 -46 19 -5 20 -14 20 -156 l0 -151 35
0 35 0 0 180 0 180 -48 0 c-27 0 -52 -3 -55 -7z"/>
<path d="M4925 9988 c-64 -35 -96 -89 -97 -163 -1 -108 49 -177 139 -191 55
-8 129 8 156 35 17 17 17 18 -2 35 -15 14 -24 15 -40 7 -11 -6 -41 -11 -66
-11 -38 0 -52 5 -76 29 -17 17 -29 40 -29 55 l0 26 130 0 130 0 0 43 c0 51
-28 100 -72 127 -37 22 -139 27 -173 8z m140 -73 c14 -13 25 -29 25 -35 0 -6
-34 -10 -90 -10 -87 0 -90 1 -80 19 29 54 104 68 145 26z"/>
<path d="M6001 9983 c-18 -9 -45 -34 -60 -57 -34 -52 -37 -150 -5 -211 42 -80
171 -111 242 -58 82 61 104 200 44 282 -42 58 -149 79 -221 44z m135 -66 c45
-39 47 -154 4 -197 -30 -30 -93 -27 -118 5 -43 54 -35 155 15 194 34 27 66 26
99 -2z"/>
<path d="M6915 9984 c-19 -10 -31 -11 -33 -5 -2 6 -17 11 -33 11 l-29 0 0
-175 0 -175 35 0 35 0 0 103 c0 125 11 170 46 185 38 18 62 14 89 -13 24 -23
25 -30 25 -150 l0 -125 40 0 40 0 0 125 c0 139 -10 178 -55 213 -34 27 -115
30 -160 6z"/>
<path d="M7623 9979 c-53 -34 -78 -84 -78 -159 0 -87 26 -137 85 -167 52 -27
96 -29 148 -8 55 24 81 53 98 112 27 94 -8 192 -80 227 -49 23 -133 21 -173
-5z m143 -62 c22 -19 28 -34 32 -78 8 -97 -37 -160 -104 -143 -77 20 -96 170
-27 223 34 27 66 26 99 -2z"/>
<path d="M7983 9990 c-24 -10 -27 -18 -17 -43 4 -11 19 -13 70 -9 70 5 104
-11 104 -50 0 -15 -8 -18 -56 -18 -56 0 -113 -19 -135 -46 -19 -23 -28 -83
-17 -120 17 -65 102 -92 181 -59 31 13 39 13 64 0 55 -29 77 -12 57 43 -7 21
-13 81 -14 139 0 99 -1 104 -29 135 -28 31 -33 33 -108 35 -43 2 -88 -2 -100
-7z m155 -220 c3 -41 0 -47 -27 -63 -42 -25 -77 -22 -97 9 -34 51 19 108 96
101 22 -2 25 -7 28 -47z"/>
<path d="M8773 9979 c-90 -58 -108 -204 -36 -290 51 -60 140 -76 221 -39 46
21 48 26 28 53 -12 15 -18 16 -35 8 -11 -6 -42 -11 -68 -11 -41 0 -54 5 -76
28 -14 15 -28 39 -29 52 l-3 25 125 3 c68 1 128 6 133 11 4 4 3 30 -3 57 -19
84 -73 124 -167 124 -41 0 -67 -6 -90 -21z m154 -61 c42 -39 31 -48 -62 -48
-92 0 -100 6 -60 45 32 33 89 34 122 3z"/>
<path d="M9202 9984 c-12 -8 -22 -10 -22 -5 0 6 -19 11 -41 11 -41 0 -41 0
-35 -31 3 -17 6 -96 6 -175 l0 -144 34 0 34 0 4 126 c4 125 4 127 33 151 21
18 36 23 56 19 22 -4 32 0 44 17 8 12 15 27 15 34 0 19 -100 17 -128 -3z"/>
<path d="M11019 5149 l-4 -4856 -28 -40 c-15 -22 -45 -49 -66 -61 l-39 -22
-5290 -1 c-4654 0 -5294 1 -5319 14 -42 23 -92 79 -103 118 -6 22 -10 1555
-10 4343 0 2370 -3 4306 -8 4302 -4 -4 -8 -47 -8 -94 -1 -48 -3 -144 -4 -213
-1 -69 -6 -132 -11 -140 -7 -11 -9 -10 -7 6 3 37 -2 56 -12 50 -6 -3 -10 0
-10 8 0 8 6 17 14 20 9 4 12 15 9 31 -5 25 -6 25 -20 9 -8 -10 -12 -13 -9 -6
4 6 1 13 -6 15 -9 3 -8 9 5 22 19 19 23 31 7 21 -7 -4 -8 3 -4 22 7 25 6 27
-9 14 -15 -12 -17 -11 -17 2 0 9 5 19 10 22 16 10 -8 35 -26 28 -8 -3 -14 0
-14 7 0 6 -4 8 -10 5 -5 -3 -10 -2 -10 4 0 6 12 8 28 5 28 -6 29 -5 23 28 -2
18 -7 25 -9 16 -3 -17 -32 -14 -32 4 0 5 4 6 10 3 6 -3 7 1 4 9 -3 9 -11 16
-16 16 -6 0 -6 6 2 15 9 11 8 18 -9 36 l-21 23 0 -4467 0 -4467 5600 0 5600 0
0 4205 c0 2757 -4 4205 -10 4205 -6 0 -10 -4 -10 -10 0 -15 -32 -11 -55 7 -19
15 -19 15 5 10 14 -4 36 -4 48 0 19 5 22 11 18 42 -2 27 -8 35 -20 33 -11 -2
-16 5 -16 23 0 22 9 30 32 26 4 0 6 8 5 19 -1 11 -5 20 -9 20 -4 0 -8 5 -8 11
0 5 5 7 10 4 6 -3 10 1 10 9 0 9 -2 16 -5 16 -9 0 -50 -25 -57 -34 -3 -5 -14
-2 -23 7 -22 22 -23 22 -17 -8 3 -16 11 -25 23 -25 12 0 17 -7 16 -20 -1 -12
-8 -20 -19 -20 -10 0 -18 -4 -18 -10 0 -5 -4 -10 -9 -10 -5 0 -9 44 -9 98 0
53 -4 108 -10 122 -9 22 -11 18 -11 -29 -1 -30 -3 -52 -5 -50 -13 13 -19 204
-23 709 -2 311 -5 585 -6 610 -2 25 -5 -2140 -8 -4811z m38 3439 c-3 -7 -5 -2
-5 12 0 14 2 19 5 13 2 -7 2 -19 0 -25z m119 -135 c-10 -10 -19 5 -10 18 6 11
8 11 12 0 2 -7 1 -15 -2 -18z m6 -105 c-9 -9 -15 -9 -24 0 -9 9 -7 12 12 12
19 0 21 -3 12 -12z m-5 -50 c-3 -8 -6 -5 -6 6 -1 11 2 17 5 13 3 -3 4 -12 1
-19z"/>
<path d="M5807 9193 c-2 -5 -2 -30 1 -56 3 -38 8 -47 21 -45 21 4 29 87 9 99
-16 11 -26 11 -31 2z"/>
<path d="M6057 9085 c-4 -63 -14 -112 -28 -144 -25 -60 -23 -95 8 -99 18 -3
24 4 33 40 6 24 17 66 25 93 18 69 20 186 3 197 -30 18 -35 6 -41 -87z"/>
<path d="M5897 9163 c-2 -5 -5 -63 -6 -130 l-2 -123 41 0 c56 0 90 34 90 89 0
31 -6 44 -26 60 -15 12 -34 21 -44 21 -12 0 -17 9 -18 35 -1 20 -4 40 -7 45
-7 12 -22 13 -28 3z m90 -149 c3 -8 1 -26 -5 -40 -14 -30 -51 -33 -53 -4 -1
11 -2 26 -3 33 -4 20 4 27 30 27 14 0 27 -7 31 -16z"/>
<path d="M3067 9143 c-4 -3 -7 -21 -7 -39 0 -25 -4 -32 -14 -28 -18 7 -72 -21
-80 -41 -3 -9 -6 -34 -6 -56 0 -49 26 -68 93 -67 l47 1 0 119 c0 92 -3 118
-13 118 -8 0 -17 -3 -20 -7z m-12 -153 c0 -41 -2 -45 -25 -45 -22 0 -25 5 -28
39 -3 40 9 58 38 53 11 -2 15 -15 15 -47z"/>
<path d="M4444 9140 c-12 -5 -24 -20 -28 -34 -3 -14 -11 -26 -16 -26 -6 0 -10
-7 -10 -15 0 -8 5 -15 10 -15 6 0 10 -30 10 -70 0 -63 2 -70 20 -70 18 0 20 7
20 69 0 63 2 69 23 75 l22 6 -23 18 c-24 19 -20 32 10 32 22 0 24 26 2 34 -9
3 -16 6 -17 5 -1 0 -12 -4 -23 -9z"/>
<path d="M4897 9143 c-9 -8 -9 -180 -1 -210 6 -20 13 -23 55 -23 40 0 51 4 64
24 18 27 22 68 11 104 -9 27 -44 43 -75 35 -19 -5 -21 -1 -21 36 0 39 -14 53
-33 34z m91 -115 c18 -18 15 -66 -5 -76 -31 -16 -43 -3 -43 44 0 36 3 44 18
44 10 0 23 -5 30 -12z"/>
<path d="M7203 9143 c-9 -3 -13 -34 -13 -103 0 -101 10 -130 45 -130 21 0 28
19 11 26 -13 5 -16 25 -16 110 0 57 -3 104 -7 103 -5 0 -14 -3 -20 -6z"/>
<path d="M7697 9144 c-4 -4 -7 -22 -7 -40 0 -30 -2 -33 -32 -32 -41 1 -68 -31
-68 -83 0 -56 26 -78 90 -77 l51 1 -3 115 c-3 107 -11 136 -31 116z m-7 -149
c0 -32 -5 -47 -15 -51 -22 -9 -45 14 -45 45 0 31 16 51 42 51 15 0 18 -8 18
-45z"/>
<path d="M9317 9136 c-7 -18 1 -26 25 -26 11 0 18 7 18 20 0 23 -35 28 -43 6z"/>
<path d="M9400 9030 l0 -120 50 0 c64 0 100 30 100 84 0 43 -50 90 -87 83 -21
-4 -23 -1 -23 34 0 32 -3 39 -20 39 -19 0 -20 -7 -20 -120z m99 -4 c7 -8 11
-27 9 -43 -2 -23 -8 -29 -35 -31 -32 -3 -33 -2 -33 37 0 37 8 48 36 50 6 1 17
-5 23 -13z"/>
<path d="M9686 9143 c-3 -4 -6 -18 -6 -33 0 -22 -6 -29 -39 -38 -50 -16 -66
-36 -65 -84 2 -58 25 -78 90 -76 l54 2 0 112 c0 87 -3 113 -14 117 -8 3 -17 3
-20 0z m-8 -149 c2 -31 -1 -43 -14 -48 -36 -14 -62 52 -32 82 24 24 43 9 46
-34z"/>
<path d="M1748 9134 c-5 -4 -8 -56 -8 -116 l0 -108 39 0 c88 0 131 39 131 119
0 60 -39 100 -105 107 -27 3 -53 3 -57 -2z m92 -44 c24 -13 34 -59 20 -96 -12
-32 -26 -44 -52 -44 -16 0 -18 10 -18 75 0 80 7 88 50 65z"/>
<path d="M2480 9044 c0 -107 9 -134 45 -134 27 0 34 17 10 26 -12 5 -15 26
-15 105 0 92 -1 99 -20 99 -19 0 -20 -7 -20 -96z"/>
<path d="M3140 9120 c0 -13 7 -20 20 -20 24 0 27 25 4 34 -23 9 -24 8 -24 -14z"/>
<path d="M3673 9133 c-9 -3 -13 -36 -13 -115 0 -108 0 -109 23 -106 12 2 21 6
20 11 -2 4 -3 54 -3 112 0 58 -3 105 -7 104 -5 0 -14 -3 -20 -6z"/>
<path d="M5301 9114 c-33 -42 -26 -63 35 -105 61 -41 56 -84 -7 -61 -29 11
-49 5 -49 -13 0 -28 91 -35 128 -9 17 12 22 24 20 47 -2 26 -12 38 -50 62 -58
37 -59 60 -3 60 46 0 63 28 23 39 -47 12 -76 6 -97 -20z"/>
<path d="M6220 9110 c0 -25 -4 -30 -24 -30 -15 0 -36 -13 -55 -35 -35 -41 -36
-44 -17 -89 16 -38 31 -45 94 -44 l42 1 0 113 c0 107 -1 114 -20 114 -16 0
-20 -7 -20 -30z m0 -114 c0 -30 -5 -46 -15 -50 -29 -11 -45 5 -45 43 0 44 5
51 37 51 21 0 23 -5 23 -44z"/>
<path d="M6400 9036 c0 -58 0 -109 0 -113 -1 -14 71 -15 102 -2 45 19 68 55
68 108 0 67 -38 103 -115 109 l-55 4 0 -106z m105 44 c40 -44 10 -130 -46
-130 -17 0 -19 8 -19 75 0 72 1 75 23 75 13 0 32 -9 42 -20z"/>
<path d="M8142 9128 c-7 -7 -12 -22 -12 -35 0 -14 -6 -23 -15 -23 -8 0 -15 -5
-15 -10 0 -6 7 -13 15 -16 11 -5 15 -22 15 -70 0 -57 2 -64 20 -64 18 0 20 7
20 61 0 47 4 65 18 75 16 13 16 15 -2 29 -21 16 -21 17 12 34 12 6 22 16 22
21 0 14 -64 12 -78 -2z"/>
<path d="M8872 9124 c-12 -8 -22 -24 -22 -36 0 -20 48 -73 85 -94 13 -7 16
-16 12 -28 -6 -16 -15 -18 -52 -13 -33 5 -45 3 -45 -6 0 -43 86 -52 125 -12
42 41 29 71 -47 118 -42 26 -36 47 12 47 28 0 40 4 40 14 0 29 -72 36 -108 10z"/>
<path d="M5740 9121 c0 -13 26 -32 33 -24 14 13 6 33 -13 33 -11 0 -20 -4 -20
-9z"/>
<path d="M2731 9038 c-1 -89 12 -130 43 -136 16 -3 18 0 11 19 -4 13 -11 51
-15 84 -15 103 -17 109 -27 112 -7 3 -11 -27 -12 -79z"/>
<path d="M3220 8993 c0 -74 2 -84 17 -81 13 2 16 14 16 55 -1 55 14 80 42 69
11 -4 15 -21 15 -66 0 -53 2 -60 20 -60 18 0 20 7 20 63 0 84 -13 101 -79 103
l-51 1 0 -84z"/>
<path d="M3393 9067 c-24 -10 -33 -60 -13 -72 5 -3 7 -18 4 -33 -7 -33 8 -49
50 -54 16 -1 31 -9 34 -15 6 -19 -28 -28 -51 -14 -26 17 -46 -1 -27 -24 15
-18 91 -20 108 -3 16 16 15 63 -2 77 -8 7 -26 13 -41 15 -35 4 -58 26 -26 26
36 0 61 18 61 45 0 14 5 25 11 25 6 0 9 8 7 17 -2 14 -14 18 -48 19 -25 1 -55
-3 -67 -9z m57 -42 c0 -9 -9 -15 -25 -15 -16 0 -25 6 -25 15 0 9 9 15 25 15
16 0 25 -6 25 -15z"/>
<path d="M3794 9066 c-51 -23 -61 -90 -19 -131 34 -35 115 -33 115 2 0 11 -7
13 -26 9 -34 -9 -74 17 -74 48 0 34 24 50 65 43 30 -5 35 -3 35 14 0 12 -7 19
-19 19 -11 0 -25 2 -33 5 -7 2 -27 -2 -44 -9z"/>
<path d="M3964 9066 c-35 -15 -44 -32 -44 -82 0 -45 29 -74 75 -74 73 0 111
81 63 134 -30 32 -56 38 -94 22z m68 -51 c22 -49 -25 -98 -60 -63 -13 13 -17
70 -5 81 16 17 54 6 65 -18z"/>
<path d="M4115 9072 c-3 -3 -5 -41 -5 -84 0 -71 2 -78 20 -78 16 0 19 8 22 63
3 59 4 62 28 62 24 0 25 -3 28 -62 3 -55 6 -63 22 -63 17 0 20 7 20 53 0 67
-8 94 -28 103 -21 8 -100 13 -107 6z"/>
<path d="M4560 9073 c-35 -13 -50 -37 -50 -80 0 -52 26 -83 71 -83 62 0 96 43
84 107 -8 45 -60 73 -105 56z m50 -43 c22 -22 23 -25 14 -57 -7 -27 -40 -39
-59 -23 -27 23 -14 100 17 100 4 0 17 -9 28 -20z"/>
<path d="M4732 9073 l-43 -4 3 -77 c3 -69 5 -77 23 -77 14 0 19 6 17 19 -2 11
-1 39 3 63 5 37 10 43 31 43 17 0 24 5 24 20 0 11 -3 19 -7 18 -5 -1 -27 -3
-51 -5z"/>
<path d="M5125 9068 c-2 -7 -8 -26 -13 -43 l-10 -30 -16 38 c-16 37 -56 56
-41 20 3 -10 14 -46 23 -81 l17 -63 -24 -18 c-26 -20 -21 -41 8 -41 25 0 34
14 58 90 34 104 38 140 19 140 -9 0 -18 -6 -21 -12z"/>
<path d="M5514 9073 c-59 -11 -81 -107 -35 -145 32 -25 104 -22 109 5 3 16 -1
17 -31 12 -31 -6 -38 -3 -53 19 -14 22 -15 31 -5 53 10 23 16 25 50 19 30 -4
40 -2 45 9 4 11 -3 19 -20 25 -14 6 -28 9 -32 9 -4 -1 -17 -4 -28 -6z"/>
<path d="M5682 9071 c-7 -4 -24 -6 -38 -3 -23 4 -24 3 -24 -61 0 -74 6 -97 26
-97 10 0 14 14 14 53 0 54 12 79 35 71 14 -6 28 22 19 37 -6 11 -15 11 -32 0z"/>
<path d="M5739 9076 c-2 -2 -3 -41 -1 -86 3 -69 6 -81 20 -78 13 2 18 17 20
63 4 70 -3 105 -22 105 -7 0 -15 -2 -17 -4z"/>
<path d="M5812 8998 c3 -79 4 -83 27 -86 19 -3 22 0 17 13 -3 9 -6 48 -6 86 0
63 -2 69 -20 69 -20 0 -21 -5 -18 -82z"/>
<path d="M6644 9066 c-35 -15 -44 -32 -44 -82 0 -45 29 -74 75 -74 72 0 114
91 65 140 -11 11 -24 20 -29 20 -5 0 -15 2 -23 5 -7 2 -27 -2 -44 -9z m65 -40
c31 -37 -9 -103 -46 -80 -37 23 -24 94 17 94 10 0 23 -6 29 -14z"/>
<path d="M8562 9071 c-7 -4 -25 -6 -39 -3 -23 4 -25 2 -20 -19 4 -13 7 -50 7
-81 0 -51 2 -58 20 -58 18 0 20 7 20 66 0 62 1 65 23 62 20 -3 22 -9 25 -65 2
-46 7 -63 17 -63 10 0 15 17 17 63 3 54 5 62 23 62 18 0 20 -8 23 -62 3 -55 6
-63 22 -63 18 0 20 7 20 65 0 52 -4 69 -20 85 -23 23 -33 24 -60 10 -13 -7
-21 -7 -25 0 -7 12 -35 13 -53 1z"/>
<path d="M9316 9072 c-3 -6 -3 -44 1 -86 5 -61 9 -76 21 -74 24 5 24 161 0
166 -9 2 -19 -1 -22 -6z"/>
<path d="M1954 9049 c-11 -13 -19 -35 -19 -59 0 -66 58 -101 115 -70 23 12 43
70 34 96 -20 56 -92 75 -130 33z m86 -34 c12 -32 -3 -75 -28 -75 -25 0 -42 20
-42 50 0 51 53 70 70 25z"/>
<path d="M2100 9064 c0 -18 43 -145 51 -150 5 -3 19 16 30 43 l22 48 21 -47
c11 -26 24 -48 28 -48 4 0 16 28 27 63 10 34 22 70 26 80 15 36 -25 17 -41
-20 l-17 -38 -15 38 c-18 45 -35 47 -52 7 -7 -16 -16 -30 -20 -30 -4 0 -13 14
-20 30 -7 17 -19 30 -26 30 -8 0 -14 -3 -14 -6z"/>
<path d="M2324 9056 c-3 -7 -4 -42 -2 -77 2 -49 7 -64 18 -64 11 0 16 14 18
57 2 47 6 58 23 63 30 10 37 -3 41 -65 2 -41 7 -55 18 -55 12 0 15 14 15 68 0
49 -4 70 -15 77 -24 15 -110 12 -116 -4z"/>
<path d="M2577 9052 c-24 -27 -22 -97 3 -122 30 -30 83 -27 109 6 30 39 24
102 -13 126 -22 15 -83 8 -99 -10z m81 -24 c17 -17 15 -63 -3 -78 -19 -16 -52
-4 -58 21 -13 49 29 89 61 57z"/>
<path d="M2810 9054 c0 -12 7 -14 28 -9 20 4 33 1 42 -10 11 -13 8 -15 -18
-15 -36 0 -55 -21 -55 -61 0 -40 13 -47 84 -47 55 0 73 8 49 23 -5 3 -10 26
-10 51 0 70 -12 84 -70 84 -39 0 -50 -4 -50 -16z m78 -86 c-4 -30 -48 -39 -48
-10 0 24 8 32 32 32 14 0 19 -6 16 -22z"/>
<path d="M3134 9054 c3 -9 6 -45 6 -80 0 -50 3 -64 15 -64 12 0 15 16 15 80 0
75 -1 80 -21 80 -15 0 -19 -4 -15 -16z"/>
<path d="M6784 9045 c13 -50 48 -135 55 -135 5 0 17 21 28 48 l20 47 24 -48
c13 -26 27 -46 32 -44 9 3 44 92 54 135 9 39 -29 24 -41 -16 -11 -41 -18 -40
-39 3 -21 44 -33 44 -52 -1 -16 -40 -27 -38 -45 6 -16 38 -45 42 -36 5z"/>
<path d="M7026 9055 c-10 -28 6 -145 20 -145 10 0 14 16 14 60 0 56 2 60 26
66 34 9 44 -7 44 -73 0 -40 4 -53 15 -53 12 0 15 14 15 64 0 93 -2 96 -70 96
-42 0 -59 -4 -64 -15z"/>
<path d="M7287 9052 c-11 -12 -17 -36 -17 -65 0 -51 23 -77 70 -77 47 0 70 26
70 79 0 34 -5 53 -18 64 -25 23 -85 22 -105 -1z m81 -58 c3 -43 -12 -60 -43
-48 -39 16 -23 98 18 92 18 -2 23 -11 25 -44z"/>
<path d="M7450 9051 c0 -17 5 -19 35 -14 29 5 35 3 35 -12 0 -12 -6 -16 -19
-12 -41 10 -76 -37 -60 -81 9 -24 56 -31 76 -11 8 8 13 8 17 0 4 -6 16 -11 28
-11 17 0 19 4 13 23 -4 12 -10 42 -12 67 -7 59 -17 70 -69 70 -37 0 -44 -3
-44 -19z m70 -80 c0 -22 -29 -36 -43 -22 -15 15 0 41 23 41 13 0 20 -7 20 -19z"/>
<path d="M7766 9048 c-26 -37 -21 -93 11 -118 33 -26 96 -25 101 2 3 15 -2 17
-27 12 -29 -6 -61 8 -61 26 0 4 24 11 53 16 47 8 52 12 49 33 -4 38 -21 51
-68 51 -33 0 -46 -5 -58 -22z m84 -23 c0 -10 -10 -15 -30 -15 -29 0 -38 9 -23
23 13 13 53 7 53 -8z"/>
<path d="M7918 9065 c-2 -2 -1 -36 2 -77 4 -58 8 -73 22 -76 14 -3 17 6 20 55
3 52 6 59 31 71 15 7 27 17 27 21 0 8 -95 13 -102 6z"/>
<path d="M8220 9006 c0 -73 6 -96 26 -96 10 0 14 14 14 50 0 47 2 50 35 64 56
24 46 46 -20 46 l-55 0 0 -64z m60 34 c0 -5 -5 -10 -11 -10 -5 0 -7 5 -4 10 3
6 8 10 11 10 2 0 4 -4 4 -10z"/>
<path d="M8356 9051 c-50 -55 -18 -141 53 -141 25 0 44 7 56 20 23 25 22 95
-1 121 -23 25 -85 25 -108 0z m86 -36 c22 -49 -25 -98 -60 -63 -7 7 -12 24
-12 38 0 51 52 69 72 25z"/>
<path d="M9054 9062 c-18 -12 -34 -49 -34 -81 0 -55 96 -97 130 -56 18 21 5
30 -37 26 -22 -2 -39 2 -44 11 -28 43 18 101 61 78 25 -13 35 -8 27 15 -7 16
-82 22 -103 7z"/>
<path d="M9190 8990 c0 -73 2 -80 20 -80 18 0 20 7 20 59 0 57 1 59 30 65 18
3 30 12 30 21 0 11 -12 15 -50 15 l-50 0 0 -80z"/>
<path d="M56 8892 c-2 -4 -1 -14 5 -22 7 -12 9 -10 9 8 0 23 -5 28 -14 14z"/>
<path d="M11100 8770 c0 -5 5 -10 10 -10 6 0 10 5 10 10 0 6 -4 10 -10 10 -5
0 -10 -4 -10 -10z"/>
<path d="M11180 8665 c0 -14 4 -25 8 -25 4 0 9 11 10 25 1 14 -3 25 -8 25 -6
0 -10 -11 -10 -25z"/>
<path d="M11150 8671 c0 -5 -8 -11 -17 -13 -16 -3 -15 -6 5 -16 20 -12 22 -11
22 13 0 14 -2 25 -5 25 -3 0 -5 -4 -5 -9z"/>
<path d="M11108 8623 c7 -3 16 -2 19 1 4 3 -2 6 -13 5 -11 0 -14 -3 -6 -6z"/>
<path d="M3273 8318 c-29 -38 -18 -83 24 -99 19 -7 129 -8 353 -2 179 4 308 9
287 11 -24 2 -35 7 -31 14 5 7 1 9 -9 5 -11 -4 -14 -2 -10 9 3 7 9 14 13 14 4
0 18 11 31 24 14 14 40 26 59 29 19 2 -132 5 -336 5 -287 2 -374 -1 -381 -10z"/>
<path d="M7160 8321 c48 -10 56 -16 68 -51 12 -32 16 -29 -53 -43 -11 -3 152
-5 362 -6 335 -1 384 1 397 15 20 20 20 43 0 72 l-15 22 -397 -1 c-218 -1
-381 -4 -362 -8z"/>
<path d="M3980 7425 c-150 -30 -283 -106 -392 -224 -104 -113 -169 -243 -189
-376 -4 -33 -9 -217 -10 -410 0 -192 -4 -381 -8 -420 -7 -68 -7 -69 -15 -30
-4 22 -10 51 -14 65 -3 14 -7 30 -8 35 -1 6 -3 13 -4 18 -6 19 -8 30 -9 72 -1
33 -5 45 -16 45 -8 0 -15 9 -15 20 0 11 -4 20 -10 20 -5 0 -9 3 -8 8 1 4 -3
25 -7 47 l-9 40 -7 -30 c-9 -41 -9 -1367 1 -1435 6 -46 8 -49 10 -20 2 29 5
22 23 -45 11 -44 24 -82 29 -83 4 -2 6 -8 3 -13 -4 -5 3 -30 14 -55 12 -26 21
-52 21 -58 0 -17 101 -169 143 -215 92 -102 236 -190 372 -227 59 -16 118 -19
578 -27 117 -3 182 -8 189 -15 7 -7 20 -12 30 -12 23 0 24 -27 1 -33 -14 -4
-12 -5 5 -6 12 -1 22 -7 22 -16 0 -11 -12 -15 -47 -16 l-48 -1 48 -13 c27 -7
51 -15 53 -18 3 -2 -19 -8 -48 -13 l-53 -8 55 -5 55 -6 -34 -12 c-19 -7 -48
-13 -65 -14 -26 0 -28 -2 -11 -9 11 -5 32 -9 48 -9 15 -1 27 -5 27 -11 0 -5 9
-10 20 -10 11 0 20 -4 20 -9 0 -10 -57 -20 -130 -22 l-55 -1 40 -9 c22 -4 64
-8 93 -8 39 -1 52 -5 52 -16 0 -10 -11 -15 -32 -16 -53 -1 -6 -16 87 -27 44
-5 89 -12 100 -15 11 -3 31 -6 44 -6 13 -1 22 -3 20 -5 -12 -13 -100 -21 -431
-38 -25 -2 -44 -7 -41 -11 3 -5 16 -7 29 -4 14 2 27 0 30 -4 3 -5 -2 -10 -10
-10 -9 -1 -20 -3 -26 -4 -5 -1 -18 -3 -27 -4 -14 -1 -15 -3 -5 -10 20 -12
-113 -21 -357 -23 l-216 -1 193 -8 c106 -5 368 -10 583 -11 l389 -3 -6 310
c-10 581 -30 1056 -44 1065 -8 5 -8 10 -2 14 6 3 8 15 5 26 -5 19 -7 19 -23 5
-9 -8 -22 -15 -29 -15 -9 0 -9 -3 1 -14 11 -12 14 -11 20 3 5 13 7 11 7 -6 1
-17 -7 -24 -31 -31 -18 -6 -85 -26 -148 -45 -244 -75 -602 -141 -830 -153
l-115 -7 3 1014 c2 557 6 1016 8 1019 7 6 1676 0 1687 -7 4 -2 7 -244 7 -538
l0 -534 198 -152 c108 -85 266 -209 350 -277 85 -68 170 -133 189 -145 l36
-21 19 24 c18 22 18 46 16 519 -3 474 -10 863 -17 831 -1 -8 -4 -23 -6 -33 -5
-29 -12 -30 -19 -2 -4 14 -11 25 -16 25 -14 0 -33 49 -31 78 0 13 -3 20 -9 17
-6 -4 -10 9 -10 32 0 28 -3 34 -10 23 -8 -13 -10 -12 -10 3 0 9 -4 17 -10 17
-5 0 -10 9 -10 21 0 12 4 17 11 14 7 -5 7 -1 1 11 -6 11 -15 54 -22 97 -21
144 -78 265 -176 375 -92 104 -253 198 -389 227 -97 20 -1563 20 -1665 0z"/>
<path d="M7514 6758 l-19 -23 23 19 c21 18 27 26 19 26 -2 0 -12 -10 -23 -22z"/>
<path d="M4160 6175 l0 -355 442 0 442 0 38 26 c21 15 38 27 38 28 0 1 -155 0
-345 -2 -189 -3 -392 -1 -450 3 -101 7 -106 8 -103 29 l3 21 455 3 c478 3 540
0 540 -24 0 -8 10 -14 25 -14 l25 0 -2 318 -3 317 -552 3 -553 2 0 -355z
m1040 265 l0 -30 -490 0 -490 0 0 30 0 30 490 0 490 0 0 -30z m2 -85 c3 -3 3
-17 0 -30 l-4 -25 -487 2 -486 3 -3 28 -3 27 489 0 c269 0 491 -2 494 -5z m6
-132 l3 -23 -494 0 c-443 0 -495 2 -501 16 -3 9 -4 20 0 25 3 5 206 8 497 7
l492 -3 3 -22z m2 -108 l0 -25 -495 0 -495 0 0 25 0 25 495 0 495 0 0 -25z
m-2 -107 l-3 -23 -492 -3 -493 -2 0 25 0 25 496 0 495 0 -3 -22z"/>
<path d="M7180 6230 c-6 -11 -8 -20 -6 -20 3 0 10 9 16 20 6 11 8 20 6 20 -3
0 -10 -9 -16 -20z"/>
<path d="M7143 6168 c-15 -18 -35 -58 -29 -58 2 0 13 16 25 35 20 35 22 46 4
23z"/>
<path d="M7090 6080 c-6 -11 -8 -20 -6 -20 3 0 10 9 16 20 6 11 8 20 6 20 -3
0 -10 -9 -16 -20z"/>
<path d="M7044 6008 c-4 -7 -14 -24 -22 -38 -14 -24 -13 -24 3 -5 20 24 37 55
31 55 -3 0 -8 -6 -12 -12z"/>
<path d="M6954 5863 c-15 -27 -101 -166 -191 -311 -90 -144 -198 -323 -241
-398 -91 -161 -127 -204 -169 -204 -32 0 -59 19 -259 181 -66 53 -177 141
-249 196 -71 54 -202 155 -290 224 -185 145 -234 179 -255 179 -8 0 4 -10 26
-22 38 -21 121 -85 335 -256 44 -35 119 -93 168 -130 48 -37 171 -135 272
-218 184 -150 240 -190 253 -176 4 3 3 -5 -3 -20 -9 -25 -9 -26 22 -21 51 7
75 29 135 123 71 110 164 272 159 276 -2 2 -42 -60 -88 -138 -82 -138 -169
-245 -189 -233 -5 3 8 24 30 46 22 23 46 53 53 67 8 15 45 79 84 142 38 63 72
124 76 134 8 22 130 230 182 311 137 215 183 295 171 295 -2 0 -17 -21 -32
-47z"/>
<path d="M5258 5733 c7 -3 16 -2 19 1 4 3 -2 6 -13 5 -11 0 -14 -3 -6 -6z"/>
<path d="M5177 5699 c-48 -37 -50 -70 -38 -484 7 -209 16 -490 21 -625 5 -135
14 -373 20 -530 15 -395 23 -486 44 -509 47 -52 88 -30 296 163 l162 150 -8
241 c-7 239 -6 243 15 264 38 38 90 22 112 -35 9 -26 24 -316 38 -735 11 -326
15 -339 110 -339 27 0 51 9 82 32 42 30 295 273 989 947 296 288 969 937 1166
1124 81 77 104 111 86 129 -9 9 -12 7 -12 -9 0 -20 -72 -90 -473 -462 -44 -41
-82 -69 -89 -65 -6 4 -8 3 -4 -4 3 -6 2 -13 -4 -17 -5 -3 -10 -1 -10 4 0 6 -5
11 -11 11 -5 0 -7 -5 -3 -12 5 -8 2 -9 -10 -5 -10 4 -20 7 -23 7 -3 0 0 7 7
15 8 9 9 15 2 15 -6 0 -14 -5 -17 -10 -4 -6 -10 -8 -15 -5 -4 3 -13 -2 -20
-10 -7 -8 -21 -15 -32 -15 -10 0 -21 -6 -24 -14 -3 -8 -13 -17 -22 -20 -9 -3
-35 -17 -57 -31 -22 -13 -47 -28 -55 -31 -8 -4 -22 -12 -30 -19 -8 -6 -31 -18
-50 -25 -19 -8 -57 -27 -84 -42 -26 -16 -53 -27 -59 -25 -7 2 -18 -5 -27 -15
-8 -11 -22 -20 -30 -21 -9 -2 -33 -13 -54 -25 -20 -12 -50 -22 -64 -21 -15 1
-36 -2 -47 -6 -11 -4 18 32 65 80 232 239 402 422 368 396 -10 -7 -18 -10 -18
-5 0 4 -7 -1 -16 -12 -8 -10 -12 -13 -8 -5 5 10 3 13 -9 8 -11 -4 -14 -2 -10
9 3 8 -1 14 -10 14 -8 0 -18 6 -20 13 -4 9 -8 8 -16 -3 -6 -9 -7 -18 -1 -24 6
-6 10 -15 10 -21 0 -6 -3 -6 -8 1 -10 15 -57 30 -48 15 5 -8 0 -8 -18 0 -14 7
-23 15 -21 20 3 4 1 10 -5 14 -5 3 -10 1 -10 -4 0 -6 -5 -11 -12 -11 -7 0 -5
7 5 18 13 14 13 19 1 30 -19 18 -27 15 -21 -8 4 -17 0 -20 -25 -20 -16 0 -27
4 -24 9 3 5 -1 12 -10 15 -25 10 -34 7 -28 -9 5 -11 -1 -15 -26 -15 -18 0 -29
4 -25 10 3 6 1 10 -4 10 -6 0 -11 9 -11 20 0 12 -7 20 -16 20 -8 0 -22 7 -31
15 -8 8 -19 13 -24 10 -5 -4 -9 3 -9 14 0 12 -4 21 -10 21 -5 0 -10 7 -10 16
0 9 -9 18 -20 21 -16 4 -18 9 -8 27 11 21 11 21 -9 1 -11 -11 -18 -27 -15 -35
4 -12 2 -12 -8 -3 -11 10 -11 15 0 28 7 8 10 18 7 21 -9 10 -39 -44 -31 -57 4
-7 3 -9 -3 -6 -16 10 -220 -326 -303 -500 -41 -84 -89 -143 -118 -143 -29 0
-91 42 -295 198 -110 84 -201 152 -205 152 -3 0 2 -8 11 -18 20 -21 22 -32 6
-32 -5 0 -8 4 -4 9 10 17 -18 24 -30 8 -9 -12 -15 -13 -23 -5 -8 8 -13 7 -18
-5 -8 -21 -22 -22 -45 -1 -14 12 -22 13 -39 4 -15 -8 -25 -8 -34 -1 -7 6 -17
7 -21 3 -5 -4 -6 0 -2 10 9 25 -28 29 -53 6 -21 -20 -23 -20 -38 -3 -16 17
-16 17 5 12 13 -3 25 -2 28 3 7 12 -43 18 -54 7 -8 -8 -11 -8 -11 1 0 17 -60
-20 -61 -38 -1 -8 -4 -4 -8 10 -4 14 -13 24 -19 22 -7 -1 -12 2 -12 8 0 5 -21
24 -47 42 -63 43 -82 58 -114 91 -15 15 -34 27 -43 27 -8 0 -19 8 -25 18 -9
15 -11 15 -20 -8 -5 -14 -10 -20 -11 -15 0 6 -4 4 -9 -3 -6 -10 -10 -7 -13 11
-4 18 -1 24 9 20 7 -3 13 0 13 5 0 6 -11 9 -25 6 -18 -3 -25 0 -25 11 0 8 5
15 11 15 8 0 8 4 -1 15 -14 17 -29 358 -19 420 5 26 17 47 36 62 15 13 25 23
22 23 -4 0 -18 -9 -32 -21z m1693 -449 c0 -5 -2 -10 -4 -10 -3 0 -8 5 -11 10
-3 6 -1 10 4 10 6 0 11 -4 11 -10z m444 -176 c3 -8 2 -12 -4 -9 -6 3 -10 10
-10 16 0 14 7 11 14 -7z"/>
<path d="M4160 5675 l0 -25 418 2 417 3 3 23 3 22 -420 0 -421 0 0 -25z"/>
<path d="M7671 5594 c0 -11 3 -14 6 -6 3 7 2 16 -1 19 -3 4 -6 -2 -5 -13z"/>
<path d="M4160 5570 c0 -20 7 -20 378 -20 207 0 394 -3 415 -6 35 -6 37 -5 37
20 l0 26 -415 0 c-408 0 -415 0 -415 -20z"/>
<path d="M4397 5493 c-220 -3 -238 -5 -235 -21 3 -16 34 -17 416 -20 l412 -2
0 25 0 25 -177 -2 c-98 -2 -285 -4 -416 -5z"/>
<path d="M6865 5389 c-4 -6 -5 -12 -2 -15 2 -3 7 2 10 11 7 17 1 20 -8 4z"/>
<path d="M6680 5320 c-6 -11 -8 -20 -6 -20 3 0 10 9 16 20 6 11 8 20 6 20 -3
0 -10 -9 -16 -20z"/>
<path d="M6913 5311 c1 -20 8 -25 23 -18 4 1 11 -9 16 -23 8 -22 10 -23 19 -8
7 13 4 23 -11 38 -11 11 -20 17 -20 14 0 -4 -6 -1 -14 6 -12 9 -15 8 -13 -9z"/>
<path d="M7017 5244 c-11 -18 4 -74 19 -74 8 0 14 5 14 10 0 6 0 12 0 15 0 3
-3 4 -7 3 -4 -2 -10 11 -13 27 -3 18 -8 25 -13 19z"/>
<path d="M5507 4994 c-8 -8 1 -24 13 -24 4 0 10 7 14 15 5 15 -14 21 -27 9z"/>
<path d="M3272 4780 c0 -14 2 -19 5 -12 2 6 2 18 0 25 -3 6 -5 1 -5 -13z"/>
<path d="M3370 3908 c41 -45 50 -53 50 -45 0 2 -21 23 -47 47 l-48 45 45 -47z"/>
<path d="M3525 3784 c51 -40 235 -115 274 -113 9 0 -15 11 -54 23 -38 12 -108
41 -155 64 -47 23 -76 34 -65 26z"/>
<path d="M3833 3663 c9 -2 23 -2 30 0 6 3 -1 5 -18 5 -16 0 -22 -2 -12 -5z"/>
<path d="M5663 3593 c-18 -6 -15 -41 7 -88 l19 -40 0 62 c1 62 -4 74 -26 66z"/>
<path d="M5228 3353 c7 -3 16 -2 19 1 4 3 -2 6 -13 5 -11 0 -14 -3 -6 -6z"/>
<path d="M1147 1950 c-46 -9 -105 -55 -128 -101 -16 -29 -18 -66 -20 -269 -2
-290 7 -320 106 -374 38 -20 54 -21 290 -21 138 0 263 4 278 8 16 4 48 26 73
49 47 43 54 43 28 0 l-16 -27 21 25 c12 15 18 32 15 44 -4 12 -2 16 5 12 7 -5
10 67 8 251 -2 246 -3 260 -24 300 -29 53 -76 89 -133 102 -50 12 -444 13
-503 1z m421 -320 c1 -96 0 -184 -2 -196 -9 -35 -262 -103 -388 -104 l-38 0 0
240 0 240 213 -2 212 -3 3 -175z"/>
<path d="M1220 1720 c0 -5 3 -9 8 -9 38 6 262 -3 262 -11 0 -5 -54 -11 -127
-13 l-128 -3 128 -2 c85 -1 127 -6 127 -13 0 -8 -21 -10 -65 -7 -36 2 -65 0
-65 -4 0 -4 32 -8 70 -8 l70 0 0 40 0 40 -140 0 c-87 0 -140 -4 -140 -10z"/>
<path d="M1248 1653 c7 -3 16 -2 19 1 4 3 -2 6 -13 5 -11 0 -14 -3 -6 -6z"/>
<path d="M1280 1633 c109 -7 220 -7 220 0 0 4 -60 6 -132 5 -73 -1 -113 -3
-88 -5z"/>
<path d="M1228 1613 c6 -2 18 -2 25 0 6 3 1 5 -13 5 -14 0 -19 -2 -12 -5z"/>
<path d="M1333 1603 c31 -2 83 -2 115 0 31 2 5 3 -58 3 -63 0 -89 -1 -57 -3z"/>
<path d="M1288 1583 c39 -2 105 -2 145 0 39 1 7 3 -73 3 -80 0 -112 -2 -72 -3z"/>
<path d="M1438 1553 c6 -2 18 -2 25 0 6 3 1 5 -13 5 -14 0 -19 -2 -12 -5z"/>
<path d="M1485 1550 c4 -6 -46 -11 -132 -13 l-138 -3 143 -2 c120 -2 142 0
142 13 0 8 -5 15 -11 15 -5 0 -7 -4 -4 -10z"/>
<path d="M9213 1873 c15 -2 37 -2 50 0 12 2 0 4 -28 4 -27 0 -38 -2 -22 -4z"/>
<path d="M9366 1861 c40 -5 57 -13 77 -36 15 -17 27 -33 27 -38 0 -16 53 -86
61 -82 4 3 11 0 15 -6 5 -8 3 -9 -6 -4 -32 20 0 -17 48 -55 29 -23 62 -56 73
-73 16 -27 19 -29 19 -11 0 13 -33 57 -81 110 -44 49 -104 115 -132 147 -51
56 -53 57 -102 56 l-50 -2 51 -6z"/>
<path d="M4503 1843 c9 -2 25 -2 35 0 9 3 1 5 -18 5 -19 0 -27 -2 -17 -5z"/>
<path d="M4598 1843 c7 -3 16 -2 19 1 4 3 -2 6 -13 5 -11 0 -14 -3 -6 -6z"/>
<path d="M4407 1802 c-36 -26 -87 -94 -87 -117 0 -5 13 11 28 38 15 27 46 60
72 77 25 16 41 30 35 30 -5 -1 -27 -13 -48 -28z"/>
<path d="M4690 1809 c19 -11 48 -35 63 -52 21 -24 25 -26 17 -9 -12 24 -85 82
-104 82 -6 0 5 -9 24 -21z"/>
<path d="M3003 1803 c9 -2 25 -2 35 0 9 3 1 5 -18 5 -19 0 -27 -2 -17 -5z"/>
<path d="M3074 1766 c11 -32 95 -126 112 -126 11 0 -30 61 -75 110 l-50 55 13
-39z m52 -48 l29 -33 -32 29 c-31 28 -38 36 -30 36 2 0 16 -15 33 -32z"/>
<path d="M4460 1736 c0 -2 8 -10 18 -17 15 -13 16 -12 3 4 -13 16 -21 21 -21
13z"/>
<path d="M5980 1711 c0 -12 237 -14 245 -1 4 7 -36 10 -119 10 -69 0 -126 -4
-126 -9z"/>
<path d="M4400 1690 c0 -5 5 -10 11 -10 5 0 7 5 4 10 -3 6 -8 10 -11 10 -2 0
-4 -4 -4 -10z"/>
<path d="M5980 1683 c0 -5 37 -7 82 -5 150 5 165 8 41 10 -68 1 -123 -1 -123
-5z"/>
<path d="M9173 1640 c0 -25 2 -35 4 -22 2 12 2 32 0 45 -2 12 -4 2 -4 -23z"/>
<path d="M4313 1610 c0 -36 2 -50 4 -32 2 17 2 47 0 65 -2 17 -4 3 -4 -33z"/>
<path d="M4456 1635 c24 -39 24 -40 24 -28 0 6 -9 21 -21 34 l-20 24 17 -30z"/>
<path d="M6013 1653 c26 -2 68 -2 95 0 26 2 4 3 -48 3 -52 0 -74 -1 -47 -3z"/>
<path d="M6198 1643 c7 -3 16 -2 19 1 4 3 -2 6 -13 5 -11 0 -14 -3 -6 -6z"/>
<path d="M6043 1633 c26 -2 67 -2 90 0 23 2 2 3 -48 3 -49 0 -68 -1 -42 -3z"/>
<path d="M3184 1540 c0 -52 1 -74 3 -47 2 26 2 68 0 95 -2 26 -3 4 -3 -48z"/>
<path d="M4380 1620 c0 -5 5 -10 11 -10 5 0 7 5 4 10 -3 6 -8 10 -11 10 -2 0
-4 -4 -4 -10z"/>
<path d="M9428 1613 c18 -2 45 -2 60 0 15 2 0 4 -33 4 -33 0 -45 -2 -27 -4z"/>
<path d="M6013 1603 c26 -2 67 -2 90 0 23 2 2 3 -48 3 -49 0 -68 -1 -42 -3z"/>
<path d="M9258 1603 c7 -3 16 -2 19 1 4 3 -2 6 -13 5 -11 0 -14 -3 -6 -6z"/>
<path d="M2918 1593 c6 -2 18 -2 25 0 6 3 1 5 -13 5 -14 0 -19 -2 -12 -5z"/>
<path d="M3008 1593 c6 -2 18 -2 25 0 6 3 1 5 -13 5 -14 0 -19 -2 -12 -5z"/>
<path d="M6190 1596 c0 -2 7 -6 15 -10 8 -3 15 -1 15 4 0 6 -7 10 -15 10 -8 0
-15 -2 -15 -4z"/>
<path d="M9358 1593 c17 -2 47 -2 65 0 17 2 3 4 -33 4 -36 0 -50 -2 -32 -4z"/>
<path d="M6018 1583 c29 -2 74 -2 100 0 26 2 2 3 -53 3 -55 0 -76 -1 -47 -3z"/>
<path d="M9532 1570 c0 -14 2 -19 5 -12 2 6 2 18 0 25 -3 6 -5 1 -5 -13z"/>
<path d="M9273 1573 c15 -2 37 -2 50 0 12 2 0 4 -28 4 -27 0 -38 -2 -22 -4z"/>
<path d="M2878 1563 c34 -2 88 -2 120 0 31 2 3 3 -63 3 -66 0 -92 -1 -57 -3z"/>
<path d="M6168 1563 c12 -2 30 -2 40 0 9 3 -1 5 -23 4 -22 0 -30 -2 -17 -4z"/>
<path d="M9273 1553 c15 -2 37 -2 50 0 12 2 0 4 -28 4 -27 0 -38 -2 -22 -4z"/>
<path d="M9418 1543 c6 -2 18 -2 25 0 6 3 1 5 -13 5 -14 0 -19 -2 -12 -5z"/>
<path d="M9478 1543 c7 -3 16 -2 19 1 4 3 -2 6 -13 5 -11 0 -14 -3 -6 -6z"/>
<path d="M2898 1533 c6 -2 18 -2 25 0 6 3 1 5 -13 5 -14 0 -19 -2 -12 -5z"/>
<path d="M2958 1533 c12 -2 32 -2 45 0 12 2 2 4 -23 4 -25 0 -35 -2 -22 -4z"/>
<path d="M3038 1533 c7 -3 16 -2 19 1 4 3 -2 6 -13 5 -11 0 -14 -3 -6 -6z"/>
<path d="M6053 1533 c31 -2 83 -2 115 0 31 2 5 3 -58 3 -63 0 -89 -1 -57 -3z"/>
<path d="M9542 1515 c0 -16 2 -22 5 -12 2 9 2 23 0 30 -3 6 -5 -1 -5 -18z"/>
<path d="M4405 1520 c4 -6 11 -8 16 -5 14 9 11 15 -7 15 -8 0 -12 -5 -9 -10z"/>
<path d="M9303 1523 c32 -2 81 -2 110 0 29 2 3 3 -58 3 -60 0 -84 -1 -52 -3z"/>
<path d="M4330 1501 c0 -18 93 -111 111 -111 9 0 6 5 -6 12 -32 17 -66 50 -86
83 -11 17 -19 24 -19 16z"/>
<path d="M4450 1465 c-7 -8 -8 -15 -2 -15 5 0 15 7 22 15 7 8 8 15 2 15 -5 0
-15 -7 -22 -15z"/>
<path d="M6145 1393 c-49 -13 -123 -27 -162 -30 -40 -3 -73 -9 -73 -12 0 -14
170 8 270 34 58 15 107 29 109 31 12 11 -65 -2 -144 -23z"/>
<path d="M4468 1383 c7 -3 16 -2 19 1 4 3 -2 6 -13 5 -11 0 -14 -3 -6 -6z"/>
<path d="M9173 1350 c0 -25 2 -35 4 -22 2 12 2 32 0 45 -2 12 -4 2 -4 -23z"/>
<path d="M3181 1334 c0 -11 3 -14 6 -6 3 7 2 16 -1 19 -3 4 -6 -2 -5 -13z"/>
<path d="M991 1314 c0 -11 3 -14 6 -6 3 7 2 16 -1 19 -3 4 -6 -2 -5 -13z"/>
<path d="M1000 1278 c0 -16 54 -70 87 -87 39 -20 37 -12 -4 18 -22 16 -50 41
-61 56 -13 16 -22 22 -22 13z"/>
<path d="M3182 1270 c0 -14 2 -19 5 -12 2 6 2 18 0 25 -3 6 -5 1 -5 -13z"/>
<path d="M4440 1206 c0 -2 7 -7 16 -10 8 -3 12 -2 9 4 -6 10 -25 14 -25 6z"/>
<path d="M4490 1180 c8 -5 22 -9 30 -9 10 0 8 3 -5 9 -27 12 -43 12 -25 0z"/>
</g>
</svg>
