<?xml version="1.0" standalone="no"?>
<!DOCTYPE svg PUBLIC "-//W3C//DTD SVG 20010904//EN"
 "http://www.w3.org/TR/2001/REC-SVG-20010904/DTD/svg10.dtd">
<svg version="1.0" xmlns="http://www.w3.org/2000/svg"
 width="1120.000000pt" height="1120.000000pt" viewBox="0 0 1120.000000 1120.000000"
 preserveAspectRatio="xMidYMid meet">
<metadata>
Created by potrace 1.14, written by Peter Selinger 2001-2017
</metadata>
<g transform="translate(0.000000,1120.000000) scale(0.100000,-0.100000)"
fill="#000000" stroke="none">
<path d="M0 5600 l0 -5600 5600 0 5600 0 0 5600 0 5600 -5600 0 -5600 0 0
-5600z m6040 1526 l0 -524 23 -6 c12 -3 259 -6 550 -6 l527 0 -2 -702 c-3
-865 -6 -1057 -18 -1038 -7 11 -14 12 -34 2 -20 -9 -26 -9 -26 1 0 8 -4 7 -10
-3 -5 -8 -12 -11 -16 -7 -4 4 -14 1 -23 -7 -18 -15 -81 -28 -126 -27 -46 2
-85 -9 -85 -25 0 -8 -4 -14 -10 -14 -5 0 -9 5 -7 11 1 6 -4 14 -12 17 -8 2
-11 0 -7 -6 4 -7 -12 -10 -46 -10 -84 2 -120 -1 -115 -9 3 -5 -8 -8 -23 -9
-15 -1 -36 -5 -46 -9 -32 -14 -56 -14 -50 1 5 14 -15 20 -26 8 -10 -9 13 -78
31 -91 14 -11 14 -11 -5 -7 -20 5 -45 59 -44 95 1 13 232 177 354 251 l48 30
-7 166 c-3 92 -11 230 -16 307 -5 77 -9 159 -9 183 0 50 -12 53 -60 14 -188
-153 -1055 -792 -1076 -792 -9 0 -124 77 -256 171 -133 95 -248 174 -257 176
-10 2 -84 -10 -167 -27 -137 -28 -482 -90 -504 -90 -26 0 -3 -24 78 -81 48
-35 200 -148 339 -252 l251 -188 -20 -59 c-11 -33 -22 -60 -25 -60 -3 0 -3 6
0 13 17 47 18 57 2 57 -9 0 -13 -5 -9 -11 5 -8 1 -8 -14 0 -25 13 -65 15 -58
2 3 -5 -3 -11 -14 -14 -13 -3 -20 0 -20 9 0 19 -66 19 -73 0 -4 -11 -14 -12
-41 -6 -32 7 -35 6 -26 -10 13 -25 13 -50 -1 -50 -6 0 -9 6 -6 14 3 7 0 19 -6
25 -16 16 -32 14 -18 -3 8 -10 9 -16 1 -21 -5 -3 -10 -15 -10 -26 0 -11 -6
-19 -12 -18 -7 1 -21 -1 -31 -6 -11 -4 -23 -3 -30 4 -8 8 -8 11 1 11 7 0 12 5
12 11 0 5 -4 7 -10 4 -5 -3 -10 -2 -10 4 0 12 -63 7 -103 -8 -17 -7 -27 -7
-27 -1 0 6 -7 10 -15 10 -8 0 -15 -5 -15 -11 0 -5 5 -7 12 -3 6 4 8 3 5 -4 -4
-5 -39 -10 -78 -11 -81 -1 -109 -11 -33 -12 28 0 42 -3 32 -7 -10 -4 -51 -7
-93 -7 -41 0 -75 -4 -75 -8 0 -5 -7 -15 -15 -23 -8 -9 -15 -12 -15 -7 0 4 -15
9 -33 9 -17 1 -25 0 -17 -3 20 -5 43 -53 26 -53 -6 0 -18 9 -26 20 -26 36 -90
21 -90 -21 0 -9 -9 -19 -21 -22 -13 -3 -19 -1 -16 6 3 7 9 11 15 10 13 -3 8
30 -5 34 -22 8 -28 -24 -34 -167 -3 -80 -5 645 -5 1611 1 1742 1 1757 21 1779
11 12 29 26 40 31 11 4 435 8 943 8 l922 1 0 -524z m1990 -1127 c19 -17 88
-83 153 -146 l118 -116 -88 -89 c-140 -142 -219 -209 -237 -202 -24 9 -6 35
121 167 l114 118 -30 37 c-16 20 -57 64 -91 97 -34 33 -75 78 -91 99 -50 68
-31 89 31 35z m-4690 9 c0 -7 -59 -72 -131 -144 l-132 -132 127 -131 c69 -72
126 -135 126 -140 0 -5 -8 -12 -17 -15 -13 -5 -54 30 -160 136 -79 78 -143
146 -143 149 0 3 62 70 138 148 110 113 143 141 165 141 15 0 27 -6 27 -12z
m3510 -1228 c0 -5 -7 -7 -15 -4 -8 4 -15 8 -15 10 0 2 7 4 15 4 8 0 15 -4 15
-10z m60 6 c0 -9 -40 -13 -46 -5 -3 5 6 9 20 9 14 0 26 -2 26 -4z m-215 -16
c3 -5 1 -10 -4 -10 -6 0 -11 5 -11 10 0 6 2 10 4 10 3 0 8 -4 11 -10z m165
-19 c0 -5 -7 -11 -14 -14 -10 -4 -13 -1 -9 9 6 15 23 19 23 5z m-140 -22 c0
-5 -6 -9 -14 -9 -8 0 -23 -3 -33 -6 -17 -5 -17 -5 0 6 9 6 15 15 12 20 -3 4 4
6 15 3 11 -3 20 -9 20 -14z m-130 -5 c0 -2 -12 -4 -26 -4 -14 0 -23 4 -20 9 6
8 46 4 46 -5z m50 -14 c0 -5 -7 -7 -15 -4 -8 4 -15 8 -15 10 0 2 7 4 15 4 8 0
15 -4 15 -10z m20 -25 c0 -9 -6 -12 -16 -8 -13 5 -13 7 -2 14 17 11 18 11 18
-6z m124 7 c3 -5 -1 -9 -9 -9 -8 0 -12 4 -9 9 3 4 7 8 9 8 2 0 6 -4 9 -8z
m-301 -52 c3 -11 1 -20 -4 -20 -5 0 -9 9 -9 20 0 11 2 20 4 20 2 0 6 -9 9 -20z
m4 -52 c-3 -8 -6 -5 -6 6 -1 11 2 17 5 13 3 -3 4 -12 1 -19z m-1552 -58 c3 -5
-1 -10 -10 -10 -9 0 -13 5 -10 10 3 6 8 10 10 10 2 0 7 -4 10 -10z m-35 -14
c0 -3 -4 -8 -10 -11 -5 -3 -10 -1 -10 4 0 6 5 11 10 11 6 0 10 -2 10 -4z m181
-103 c-12 -20 -14 -14 -5 12 4 9 9 14 11 11 3 -2 0 -13 -6 -23z m-701 -3 c0
-5 -2 -10 -4 -10 -3 0 -8 5 -11 10 -3 6 -1 10 4 10 6 0 11 -4 11 -10z m-852
-866 l-3 -62 51 -6 c29 -3 65 -3 82 0 36 7 46 -6 26 -34 -14 -20 -24 -22 -132
-22 -129 0 -162 -11 -162 -55 0 -42 34 -55 143 -55 l99 0 34 -34 c28 -28 34
-42 34 -76 0 -36 -6 -48 -39 -81 l-39 -39 -126 0 c-123 0 -126 -1 -142 -25
-22 -34 -34 -31 -34 9 0 25 7 40 26 55 24 19 40 21 147 21 130 0 157 10 157
54 0 45 -13 51 -134 56 -108 5 -117 7 -142 31 -33 34 -42 94 -19 138 17 34 66
61 110 61 24 0 25 3 25 59 0 76 7 96 27 79 11 -8 14 -28 11 -74z m454 -162
c20 -20 -14 -47 -40 -33 -31 16 -57 13 -76 -8 -17 -18 -17 -20 1 -29 10 -5 35
-15 55 -21 41 -14 78 -53 78 -83 0 -10 -11 -30 -25 -43 -19 -20 -34 -25 -74
-25 -60 0 -103 17 -99 39 4 16 21 18 70 5 44 -10 80 3 76 29 -2 16 -15 25 -53
35 -64 18 -85 37 -85 78 0 50 40 77 108 72 29 -3 58 -10 64 -16z m253 4 c16
-12 17 -16 6 -30 -10 -11 -18 -13 -31 -6 -55 29 -116 -6 -127 -73 -5 -31 -1
-40 26 -67 30 -31 33 -32 91 -25 67 8 79 -4 30 -30 -61 -32 -138 -15 -170 37
-39 64 -15 174 43 198 34 14 111 12 132 -4z m246 -15 c29 -35 25 -95 -7 -120
l-26 -21 26 -45 27 -45 -29 0 c-23 0 -32 7 -50 46 -18 36 -27 45 -45 42 -18
-2 -23 -10 -25 -45 -3 -38 -6 -43 -28 -43 l-24 0 0 131 0 131 81 -4 c70 -3 83
-6 100 -27z m129 -101 l0 -130 -25 0 -26 0 2 130 1 130 24 0 24 0 0 -130z
m245 105 c29 -28 30 -40 11 -77 -13 -24 -12 -28 5 -44 19 -17 25 -59 11 -80
-15 -24 -54 -34 -126 -34 l-76 0 0 130 0 130 75 0 c67 0 79 -3 100 -25z m284
-9 c62 -59 47 -171 -29 -208 -22 -12 -58 -18 -97 -18 l-63 0 0 131 0 131 79
-3 c72 -4 83 -7 110 -33z m398 8 c15 -11 34 -39 42 -61 12 -34 12 -45 0 -83
-20 -63 -54 -84 -145 -88 l-74 -4 0 132 0 132 74 -4 c56 -2 82 -9 103 -24z
m309 -7 c92 -84 30 -227 -98 -227 -107 0 -164 128 -96 215 26 34 51 44 111 44
40 1 53 -4 83 -32z m278 27 c9 -3 16 -15 16 -25 0 -17 -5 -19 -52 -13 -45 5
-57 3 -80 -16 -24 -18 -28 -29 -28 -70 0 -41 4 -52 26 -69 29 -23 59 -26 98
-12 18 7 27 6 35 -3 17 -20 -11 -38 -68 -44 -90 -8 -141 41 -141 136 0 53 25
96 64 112 25 10 108 13 130 4z m120 -84 c2 -47 7 -93 11 -103 9 -22 50 -32 83
-21 32 11 41 42 39 139 -2 72 -1 75 21 75 21 0 22 -3 22 -99 0 -55 -3 -107 -6
-116 -10 -25 -59 -45 -113 -45 -43 0 -53 4 -75 31 -24 28 -26 38 -26 130 0 95
1 100 20 97 19 -3 21 -12 24 -88z m348 5 c17 -44 34 -84 38 -88 6 -7 47 80 73
156 5 12 17 17 42 17 l35 0 0 -127 0 -128 -26 0 -26 0 4 88 c1 48 0 87 -4 87
-4 0 -21 -38 -39 -85 -28 -72 -36 -85 -55 -85 -15 0 -25 8 -30 23 -20 66 -47
127 -55 127 -5 0 -9 -36 -9 -80 0 -79 0 -80 -25 -80 l-25 0 0 131 0 130 36 -3
c35 -3 37 -5 66 -83z m458 65 c0 -18 -7 -20 -75 -20 l-75 0 0 -35 0 -35 65 0
c58 0 65 -2 65 -20 0 -16 -8 -19 -62 -22 -63 -3 -63 -3 -63 -33 l0 -30 73 -3
c64 -3 72 -5 72 -22 0 -19 -7 -20 -100 -20 l-100 0 0 130 0 130 100 0 c93 0
100 -1 100 -20z m194 -70 l61 -85 3 88 c3 85 3 87 27 87 l25 0 0 -130 0 -130
-24 0 c-17 0 -33 11 -49 33 -76 104 -102 137 -109 137 -4 0 -8 -38 -8 -85 0
-84 0 -85 -25 -85 l-25 0 0 131 0 130 32 -3 c27 -3 41 -15 92 -88z m386 70 c0
-17 -7 -20 -40 -20 l-40 0 0 -110 0 -110 -25 0 -25 0 0 110 0 110 -40 0 c-33
0 -40 3 -40 20 0 19 7 20 105 20 98 0 105 -1 105 -20z m223 0 c10 -10 9 -11
-2 -5 -11 6 -13 4 -8 -9 6 -15 1 -16 -41 -10 -37 5 -51 2 -61 -10 -20 -24 -6
-44 34 -52 127 -23 123 -154 -4 -154 -71 0 -91 9 -91 37 0 20 4 24 18 18 31
-13 97 -16 112 -6 23 16 1 42 -52 60 -25 9 -53 22 -62 30 -23 20 -20 77 5 102
18 18 30 21 80 17 33 -2 65 -10 72 -18z"/>
<path d="M4739 6277 c-46 -35 -50 -88 -10 -128 l29 -29 816 0 c494 0 825 4
840 10 25 9 56 56 56 84 0 8 -12 28 -26 45 l-26 31 -831 0 c-638 -1 -836 -3
-848 -13z"/>
<path d="M4726 5969 c-20 -16 -26 -29 -26 -57 1 -50 21 -73 72 -83 24 -4 400
-8 836 -9 867 0 836 -2 861 58 15 35 2 73 -31 96 -20 14 -108 16 -854 16 -826
0 -831 0 -858 -21z"/>
<path d="M4725 5675 c-16 -15 -25 -36 -25 -55 0 -19 9 -40 25 -55 l24 -25 435
0 435 0 27 23 c20 17 27 33 27 57 0 24 -7 40 -27 57 l-27 23 -435 0 -435 0
-24 -25z"/>
<path d="M6520 4789 c0 -5 5 -7 10 -4 6 3 10 8 10 11 0 2 -4 4 -10 4 -5 0 -10
-5 -10 -11z"/>
<path d="M4761 4542 c-6 -9 -11 -13 -11 -9 0 4 -8 3 -18 -2 -13 -7 -23 -6 -30
1 -9 9 -12 9 -12 0 0 -13 1 -13 42 -16 14 0 29 -4 33 -8 8 -8 35 15 35 30 0
18 -29 21 -39 4z"/>
<path d="M4500 4500 c0 -5 5 -10 10 -10 6 0 10 5 10 10 0 6 -4 10 -10 10 -5 0
-10 -4 -10 -10z"/>
<path d="M4540 4496 c0 -2 7 -6 15 -10 8 -3 15 -1 15 4 0 6 -7 10 -15 10 -8 0
-15 -2 -15 -4z"/>
<path d="M4380 4459 c0 -5 5 -7 10 -4 6 3 10 8 10 11 0 2 -4 4 -10 4 -5 0 -10
-5 -10 -11z"/>
<path d="M4350 3346 c0 -7 -3 -27 -6 -44 -6 -29 -4 -31 29 -37 63 -12 108 35
71 76 -21 23 -94 27 -94 5z"/>
<path d="M4730 3324 c0 -35 0 -35 41 -32 79 6 76 68 -2 68 -38 0 -39 -1 -39
-36z"/>
<path d="M4734 3251 c-2 -2 -4 -20 -4 -38 l0 -34 53 3 c48 3 52 5 55 30 3 22
-2 30 -23 38 -25 9 -72 10 -81 1z"/>
<path d="M4998 3339 c-4 -19 -3 -113 1 -151 1 -5 17 -8 37 -8 49 0 94 45 94
93 0 50 -27 78 -82 84 -41 5 -46 3 -50 -18z"/>
<path d="M5410 3270 l0 -90 36 0 c26 0 43 8 65 29 60 61 24 151 -61 151 l-40
0 0 -90z"/>
<path d="M5696 3329 c-29 -35 -33 -67 -11 -108 26 -51 82 -56 126 -12 58 58
24 151 -55 151 -26 0 -40 -7 -60 -31z"/>
</g>
</svg>
